<?xml version="1.0" encoding="UTF-8"?>
<svg width="800" height="600" version="1.1" viewBox="0 0 800 600" xmlns="http://www.w3.org/2000/svg">
 <g>
  <path d="M400 100c-80 0-150 70-150 150 0 80 70 150 150 150s150-70 150-150c0-80-70-150-150-150zm0 270c-66.2 0-120-53.8-120-120s53.8-120 120-120 120 53.8 120 120-53.8 120-120 120z"/>
  <path d="M400 150c-55.2 0-100 44.8-100 100s44.8 100 100 100 100-44.8 100-100-44.8-100-100-100zm0 180c-44.2 0-80-35.8-80-80s35.8-80 80-80 80 35.8 80 80-35.8 80-80 80z"/>
  <path d="M400 200c-27.6 0-50 22.4-50 50s22.4 50 50 50 50-22.4 50-50-22.4-50-50-50zm0 80c-16.6 0-30-13.4-30-30s13.4-30 30-30 30 13.4 30 30-13.4 30-30 30z"/>
  <path d="M400 250c-13.8 0-25 11.2-25 25s11.2 25 25 25 25-11.2 25-25-11.2-25-25-25zm0 40c-8.3 0-15-6.7-15-15s6.7-15 15-15 15 6.7 15 15-6.7 15-15 15z"/>
  <path d="M400 275c-5.5 0-10 4.5-10 10s4.5 10 10 10 10-4.5 10-10-4.5-10-10-10zm0 15c-2.8 0-5-2.2-5-5s2.2-5 5-5 5 2.2 5 5-2.2 5-5 5z"/>
  <path d="M400 285c-2.8 0-5 2.2-5 5s2.2 5 5 5 5-2.2 5-5-2.2-5-5-5z"/>
  <path d="M395 290h10v20h-10z"/>
  <path d="M390 310h20v30h-20z"/>
  <path d="M385 340h30v40h-30z"/>
  <path d="M380 380h40v50h-40z"/>
  <path d="M375 430h50v60h-50z"/>
  <path d="M370 490h60v10h-60z"/>
 </g>
</svg>
